
<svg fill="#4994EC" height="800px" width="800px" version="1.1" id="Layer_1" xmlns="http://www.w3.org/2000/svg" xmlns:xlink="http://www.w3.org/1999/xlink" 
	 viewBox="0 0 512 512" xml:space="preserve">
<g>
	<g>
		<path d="M256,0C114.51,0,0,114.497,0,256c0,141.49,114.497,256,256,256c141.49,0,256-114.497,256-256C512,114.51,397.503,0,256,0z
			 M365.956,243.439l-32.295,44.76c4.138,6.687,6.534,14.559,6.534,22.983c0,24.154-19.651,43.804-43.804,43.804
			s-43.804-19.651-43.804-43.804c0-8.131,2.235-15.746,6.11-22.278l-32.833-45.507c-6.426,1.547-13.086,1.648-19.707,0.185
			l-32.587,45.164c3.932,6.567,6.2,14.24,6.2,22.435c0,24.154-19.651,43.804-43.804,43.804c-24.154,0-43.805-19.651-43.805-43.804
			c0-28.074,26.258-49.154,53.884-42.621l32.295-44.76c-4.138-6.687-6.534-14.559-6.534-22.983
			c0-24.154,19.651-43.804,43.804-43.804c24.154,0,43.804,19.651,43.804,43.804c0,8.131-2.235,15.746-6.11,22.278l32.833,45.507
			c6.426-1.547,13.086-1.648,19.707-0.185l32.587-45.164c-3.932-6.566-6.2-14.239-6.2-22.435c0-24.154,19.651-43.804,43.804-43.804
			c24.154,0,43.804,19.651,43.804,43.804C419.84,228.891,393.582,249.972,365.956,243.439z"/>
	</g>
</g>
</svg>