<?xml version="1.0" encoding="UTF-8"?> <!-- Generator: Adobe Illustrator 27.0.0, SVG Export Plug-In . SVG Version: 6.00 Build 0) --> <svg xmlns="http://www.w3.org/2000/svg" xmlns:xlink="http://www.w3.org/1999/xlink" id="Layer_1" x="0px" y="0px" viewBox="0 0 766 300" style="enable-background:new 0 0 766 300;" xml:space="preserve"> <style type="text/css"> .st0{fill:#D11C56;} </style> <rect x="31.4" y="214" class="st0" width="17.6" height="61"></rect> <rect x="51.6" y="201.1" class="st0" width="17.6" height="73.9"></rect> <rect x="71.7" y="192.2" class="st0" width="17.6" height="82.8"></rect> <rect x="91.9" y="166.4" class="st0" width="17.6" height="108.6"></rect> <rect x="112.1" y="185.1" class="st0" width="17.6" height="89.9"></rect> <rect x="132.2" y="174.9" class="st0" width="17.6" height="100.1"></rect> <rect x="152.4" y="214" class="st0" width="17.6" height="61"></rect> <rect x="172.6" y="147.8" class="st0" width="17.6" height="127.2"></rect> <rect x="192.8" y="182.4" class="st0" width="17.6" height="92.6"></rect> <rect x="212.9" y="188.2" class="st0" width="17.6" height="86.8"></rect> <rect x="233.1" y="134.4" class="st0" width="17.6" height="140.6"></rect> <rect x="253.3" y="166.4" class="st0" width="17.6" height="108.6"></rect> <rect x="273.4" y="174.9" class="st0" width="17.6" height="100.1"></rect> <rect x="293.6" y="137.6" class="st0" width="17.6" height="137.4"></rect> <rect x="313.8" y="157.6" class="st0" width="17.6" height="117.4"></rect> <rect x="334" y="120.7" class="st0" width="17.6" height="154.3"></rect> <rect x="354.1" y="194" class="st0" width="17.6" height="81"></rect> <rect x="374.3" y="214" class="st0" width="17.6" height="61"></rect> <rect x="394.5" y="131.3" class="st0" width="17.6" height="143.7"></rect> <rect x="414.6" y="168.2" class="st0" width="17.6" height="106.8"></rect> <rect x="434.8" y="140.7" class="st0" width="17.6" height="134.3"></rect> <rect x="455" y="157.6" class="st0" width="17.6" height="117.4"></rect> <rect x="475.2" y="136.2" class="st0" width="17.6" height="138.8"></rect> <rect x="495.3" y="118" class="st0" width="17.6" height="157"></rect> <rect x="515.5" y="154.4" class="st0" width="17.6" height="120.6"></rect> <rect x="535.7" y="137.6" class="st0" width="17.6" height="137.4"></rect> <rect x="555.8" y="126.9" class="st0" width="17.6" height="148.1"></rect> <rect x="576" y="150" class="st0" width="17.6" height="125"></rect> <rect x="596.2" y="140.7" class="st0" width="17.6" height="134.3"></rect> <rect x="616.4" y="165.1" class="st0" width="17.6" height="109.9"></rect> <rect x="636.5" y="125.1" class="st0" width="17.6" height="149.9"></rect> <rect x="656.7" y="137.6" class="st0" width="17.6" height="137.4"></rect> <rect x="676.9" y="180.7" class="st0" width="17.6" height="94.3"></rect> <rect x="697" y="120.7" class="st0" width="17.6" height="154.3"></rect> <rect x="717.2" y="150" class="st0" width="17.6" height="125"></rect> <circle class="st0" cx="181.4" cy="72.8" r="5.1"></circle> <circle class="st0" cx="31.4" cy="150" r="5.1"></circle> <circle class="st0" cx="270.8" cy="109.9" r="5.1"></circle> <circle class="st0" cx="417.1" cy="29.5" r="5.1"></circle> <circle class="st0" cx="477.6" cy="78.6" r="5.1"></circle> <circle class="st0" cx="567.1" cy="57.5" r="5.1"></circle> <circle class="st0" cx="625.1" cy="86.2" r="5.1"></circle> <circle class="st0" cx="734.8" cy="25.6" r="5.1"></circle> <polygon class="st0" points="29.4,150.4 29,149.6 181.4,72 181.6,72.1 270.8,109.7 418,29 477.9,78.4 567.1,57 625.1,86 734.5,25.1 735,26 625.2,87.2 567,58.1 477.7,79.5 417.9,30.2 270.9,110.9 270.6,110.8 181.4,73.1 "></polygon> </svg> 