<?xml version="1.0" encoding="UTF-8"?> <!-- Generator: Adobe Illustrator 16.0.3, SVG Export Plug-In . SVG Version: 6.00 Build 0) --> <svg xmlns="http://www.w3.org/2000/svg" xmlns:xlink="http://www.w3.org/1999/xlink" id="Layer_2" x="0px" y="0px" width="800px" height="200px" viewBox="0 0 800 200" xml:space="preserve"> <g> <g> <rect x="303.614" y="21.419" width="25.703" height="102.009"></rect> <rect x="459.17" y="21.419" width="25.703" height="102.009"></rect> <polygon points="581.526,85.408 532.263,21.419 532.263,21.419 506.56,21.419 506.56,123.695 532.263,123.695 532.263,59.706 581.526,123.695 581.526,123.695 607.497,123.695 607.497,21.419 581.526,21.419 "></polygon> <polygon points="239.357,82.463 214.458,21.419 186.613,21.419 228.648,123.695 250.334,123.695 292.37,21.419 264.525,21.419 "></polygon> <polygon points="442.303,21.419 410.174,21.419 377.51,64.525 377.51,21.419 351.807,21.419 351.807,123.695 377.51,123.695 377.51,78.447 411.78,123.695 445.783,123.695 401.606,70.415 "></polygon> <path d="M730.389,66.935h-51.674v20.08h21.954c-0.803,10.978-8.567,17.671-23.025,17.671s-25.702-14.19-25.702-31.593 S661.58,41.5,677.644,41.5c12.049,0,19.545,6.158,23.294,15.529l24.631-10.174c-7.764-17.135-24.096-28.648-47.389-28.648 c-32.396,0-52.744,24.364-52.744,54.351c0,29.986,18.474,54.351,52.744,54.351c28.915,0,46.318-16.868,51.138-39.894 c1.071-4.551,1.606-9.371,1.606-14.458C730.656,70.683,730.656,68.809,730.389,66.935z"></path> </g> <path fill="#D11C56" d="M98.527,0.268H66.667v199.197h31.861v-31.059l70.415-70.414L98.527,27.309V0.268z M124.498,97.724 l-25.971,25.971V71.754L124.498,97.724z"></path> <g> <g> <path d="M207.764,142.704h3.481l14.726,32.664h-4.016l-3.749-8.567h-17.67l-3.749,8.567h-3.748L207.764,142.704z M216.868,163.588l-7.497-16.6l-7.497,16.6H216.868z"></path> <path d="M231.861,151.271h3.48v4.819c1.874-2.944,4.819-5.354,9.103-5.354c5.89,0,11.513,4.551,11.513,12.584 c0,7.764-5.623,12.584-11.513,12.584c-4.551,0-7.229-2.41-9.103-5.088v12.049h-3.48V151.271z M252.477,163.32 c0-5.623-4.016-9.371-8.567-9.371c-4.284,0.268-8.568,4.016-8.568,9.371c0,5.622,4.284,9.371,8.568,9.371 C248.728,172.691,252.477,169.21,252.477,163.32z"></path> <path d="M261.847,162.517c0-7.765,0.536-15.261,9.104-17.136l13.387-3.213l0.803,2.945l-13.119,3.213 c-5.087,1.34-6.693,4.017-6.961,8.568c1.606-2.945,4.819-5.088,9.906-5.088c6.158,0,11.513,5.355,11.513,12.049 s-5.087,12.316-12.316,12.316C266.667,175.904,261.847,170.816,261.847,162.517z M282.731,163.588 c0-5.088-3.749-9.104-8.568-9.104c-5.087,0-8.567,4.016-8.567,9.104c0,5.087,3.749,9.104,8.567,9.104 C279.25,172.691,282.731,168.675,282.731,163.588z"></path> <path d="M292.905,151.271h3.481v19.01l14.19-19.01h3.48v24.097h-3.48v-19.009l-14.19,19.009h-3.481V151.271z"></path> <path d="M327.979,154.484h-8.567v-3.213h20.883v3.213h-8.567v20.884h-3.749V154.484z"></path> <path d="M345.381,151.271h3.481v4.819c1.874-2.944,4.819-5.354,9.103-5.354c5.89,0,11.513,4.551,11.513,12.584 c0,7.764-5.623,12.584-11.513,12.584c-4.552,0-7.229-2.41-9.103-5.088v12.049h-3.481V151.271z M365.998,163.32 c0-5.623-4.016-9.371-8.568-9.371c-4.551,0-8.567,3.748-8.567,9.371c0,5.622,4.284,9.371,8.567,9.371 C362.249,172.691,365.998,169.21,365.998,163.32z"></path> <path d="M374.565,168.406c0-5.086,4.284-7.764,10.174-7.764c2.945,0,5.087,0.535,7.229,1.07v-0.803 c0-4.283-2.677-6.426-7.229-6.426c-2.945,0-5.087,0.803-7.229,1.606l-1.071-2.944c2.678-1.34,5.087-2.143,8.835-2.143 c3.48,0,6.158,0.803,7.765,2.678c1.606,1.605,2.409,4.016,2.409,6.961v14.726h-3.48v-3.48c-1.606,2.142-4.284,4.017-8.567,4.017 C378.849,175.904,374.565,173.494,374.565,168.406z M392.235,166.533v-2.143c-1.874-0.535-4.016-1.07-6.961-1.07 c-4.552,0-6.961,1.874-6.961,4.818c0,2.945,2.677,4.82,6.158,4.82C388.487,172.959,392.235,170.549,392.235,166.533z"></path> <path d="M409.906,161.713l-9.371-10.174h4.284l12.315,13.923v-13.923h3.48v13.923l12.316-13.923h4.284l-9.371,10.174 l9.906,13.655h-4.284l-8.031-11.245l-4.82,5.355v5.89h-3.48v-5.89l-4.818-5.355l-8.033,11.245H400L409.906,161.713z"></path> <path d="M442.838,151.271h3.48v10.441h13.923v-10.441h3.48v24.097h-3.48v-10.442h-13.923v10.442h-3.48V151.271z"></path> <path d="M471.754,151.271h3.48v9.104h6.426c5.087,0,9.371,2.142,9.371,7.229c0,4.819-3.481,7.765-9.104,7.765h-10.441v-24.097 H471.754z M481.928,172.155c3.48,0,5.891-1.606,5.891-4.552c0-2.678-2.143-4.283-5.891-4.283h-6.426v8.835H481.928z M495.582,151.271h3.48v24.097h-3.48V151.271z"></path> <path d="M505.757,163.32c0-6.961,4.818-12.584,11.513-12.584c7.229,0,11.244,5.623,11.244,12.852c0,0.268,0,0.803,0,1.338 h-19.009c0.535,5.088,4.283,8.033,8.567,8.033c3.213,0,5.622-1.34,7.497-3.48l2.142,1.873c-2.41,2.678-5.354,4.553-9.906,4.553 C511.111,175.904,505.757,170.816,505.757,163.32z M524.766,161.981c-0.535-4.284-2.945-8.032-7.765-8.032 c-4.016,0-7.229,3.48-7.764,8.032H524.766z"></path> <path d="M548.595,151.271h3.48v4.819c1.874-2.944,4.819-5.354,9.103-5.354c5.891,0,11.513,4.551,11.513,12.584 c0,7.764-5.622,12.584-11.513,12.584c-4.551,0-7.229-2.41-9.103-5.088v12.049h-3.48V151.271z M569.21,163.32 c0-5.623-4.016-9.371-8.567-9.371s-8.567,3.748-8.567,9.371c0,5.622,4.283,9.371,8.567,9.371 C565.462,172.691,569.21,169.21,569.21,163.32z"></path> <path d="M578.046,163.32c0-6.693,5.354-12.584,12.583-12.584c7.229,0,12.584,5.623,12.584,12.584 c0,6.693-5.354,12.584-12.584,12.584C583.133,175.904,578.046,170.281,578.046,163.32z M599.465,163.32 c0-5.088-3.749-9.371-8.836-9.371s-8.835,4.283-8.835,9.371c0,5.086,3.748,9.371,8.835,9.371S599.465,168.675,599.465,163.32z"></path> <path d="M608.567,162.517c0-7.765,0.536-15.261,9.104-17.136l13.387-3.213l0.803,2.945l-13.119,3.213 c-5.087,1.34-6.693,4.017-6.961,8.568c1.606-2.945,4.819-5.088,9.906-5.088c6.158,0,11.513,5.355,11.513,12.049 s-5.087,12.316-12.315,12.316C613.387,175.904,608.567,170.816,608.567,162.517z M629.451,163.588 c0-5.088-3.748-9.104-8.567-9.104c-5.087,0-8.567,4.016-8.567,9.104c0,5.087,3.748,9.104,8.567,9.104 C625.971,172.691,629.451,168.675,629.451,163.588z"></path> <path d="M638.019,163.32c0-6.693,5.354-12.584,12.584-12.584c7.229,0,12.583,5.623,12.583,12.584 c0,6.693-5.354,12.584-12.583,12.584C643.373,175.904,638.019,170.281,638.019,163.32z M659.438,163.32 c0-5.088-3.748-9.371-8.835-9.371s-8.835,4.283-8.835,9.371c0,5.086,3.748,9.371,8.835,9.371 C655.957,172.691,659.438,168.675,659.438,163.32z"></path> <path d="M674.431,154.484h-8.567v-3.213h20.884v3.213h-8.567v20.884h-3.749V154.484z"></path> <path d="M691.834,151.271h3.48v9.104h6.426c5.087,0,9.371,2.142,9.371,7.229c0,4.819-3.48,7.765-9.104,7.765h-10.441v-24.097 H691.834z M702.008,172.155c3.48,0,5.891-1.606,5.891-4.552c0-2.678-2.143-4.283-5.891-4.283h-6.426v8.835H702.008z M715.662,151.271h3.481v24.097h-3.481V151.271z"></path> </g> </g> </g> </svg> 